<svg width="180" height="32" viewBox="0 0 180 32" fill="none" xmlns="http://www.w3.org/2000/svg">
<path d="M177.477 31.4947C177.75 31.9747 178.361 32.1425 178.841 31.8695C179.321 31.5964 179.489 30.9859 179.216 30.5058L177.477 31.4947ZM4.16254 0.0515608C3.6386 -0.123087 3.07228 0.160073 2.89763 0.684016L0.0515802 9.22217C-0.123067 9.74611 0.160093 10.3124 0.684036 10.4871C1.20798 10.6617 1.7743 10.3786 1.94895 9.85462L4.47877 2.26516L12.0682 4.79498C12.5922 4.96962 13.1585 4.68647 13.3331 4.16252C13.5078 3.63858 13.2246 3.07226 12.7007 2.89761L4.16254 0.0515608ZM179.216 30.5058C175.239 23.5156 170.034 18.9582 163.892 16.2263C157.77 13.5027 150.775 12.6189 143.243 12.868C128.224 13.3647 110.751 18.3917 93.2933 22.7172C75.7482 27.0643 58.1871 30.7153 42.7037 28.6729C27.3216 26.6439 13.9603 18.9921 4.74074 0.553031L2.95189 1.44746C12.4823 20.5084 26.4335 28.5441 42.4421 30.6557C58.3493 32.754 76.257 28.9987 93.7743 24.6585C111.379 20.2964 128.562 15.3546 143.309 14.867C150.66 14.6239 157.325 15.494 163.08 18.0536C168.815 20.6048 173.703 24.8599 177.477 31.4947L179.216 30.5058Z" fill="#7D298A"/>
</svg>
