<svg width="155" height="154" viewBox="0 0 155 154" fill="none" xmlns="http://www.w3.org/2000/svg">
<path d="M125.428 0.16496C124.967 -0.138901 124.347 -0.0113689 124.043 0.449811C123.739 0.910991 123.867 1.53118 124.328 1.83504L125.428 0.16496ZM7.23325 153.264C7.65532 153.62 8.28623 153.567 8.64242 153.145L14.4469 146.267C14.8031 145.845 14.7496 145.214 14.3276 144.858C13.9055 144.501 13.2746 144.555 12.9184 144.977L7.75889 151.091L1.64501 145.931C1.22293 145.575 0.592027 145.629 0.235837 146.051C-0.120352 146.473 -0.0669413 147.104 0.355134 147.46L7.23325 153.264ZM124.328 1.83504C137.67 10.6258 145.591 18.0242 149.384 24.3871C151.271 27.5522 152.115 30.4257 152.128 33.0675C152.142 35.7032 151.329 38.1868 149.774 40.5802C146.634 45.4139 140.509 49.8152 132.307 54.1143C124.132 58.3985 114.047 62.5054 103.135 66.8201C81.367 75.4276 56.3319 84.847 37.262 98.0529C18.162 111.28 4.83893 128.454 6.88175 152.584L8.87462 152.416C6.91739 129.296 19.5943 112.72 38.4006 99.6971C57.2369 86.653 82.0143 77.3224 103.871 68.6799C114.772 64.3696 124.952 60.2265 133.235 55.8857C141.489 51.5598 148.013 46.9611 151.451 41.6698C153.185 39.0007 154.144 36.1405 154.128 33.0575C154.113 29.9806 153.128 26.7603 151.102 23.3629C147.071 16.6008 138.836 8.99923 125.428 0.16496L124.328 1.83504Z" fill="#7D298A"/>
</svg>
