<svg width="107" height="129" viewBox="0 0 107 129" fill="none" xmlns="http://www.w3.org/2000/svg">
<path d="M104.889 128.269C105.037 128.801 105.589 129.112 106.121 128.963C106.653 128.815 106.963 128.263 106.815 127.731L104.889 128.269ZM1.35168 81.0002L0.370568 81.1937L1.35168 81.0002ZM50.5566 0.0214535C50.016 -0.0916892 49.4861 0.25481 49.3729 0.795381L47.5292 9.6045C47.416 10.1451 47.7625 10.675 48.3031 10.7882C48.8437 10.9013 49.3736 10.5548 49.4867 10.0142L51.1256 2.1839L58.956 3.8228C59.4965 3.93595 60.0265 3.58945 60.1396 3.04888C60.2528 2.5083 59.9063 1.97836 59.3657 1.86522L50.5566 0.0214535ZM106.815 127.731C103.737 116.701 95.0933 106.01 84.1213 96.7592C73.1299 87.4921 59.6981 79.5827 46.8671 74.1421C34.0658 68.7141 21.7342 65.6889 12.967 66.3232C8.58406 66.6402 4.92771 67.8846 2.60722 70.3832C0.249059 72.9223 -0.544915 76.5509 0.370568 81.1937L2.33279 80.8068C1.49826 76.5746 2.28241 73.6719 4.07269 71.7442C5.90064 69.776 8.96304 68.6181 13.1113 68.3179C21.4066 67.7178 33.3876 70.5989 46.0863 75.9834C58.7554 81.3553 72.011 89.1647 82.8322 98.2882C93.6727 107.428 101.967 117.8 104.889 128.269L106.815 127.731ZM0.370568 81.1937C1.07349 84.7585 3.07333 87.0643 5.98803 88.1034C8.82403 89.1145 12.3926 88.8804 16.2364 87.7419C23.9414 85.4598 33.2381 79.4021 41.2507 70.9392C57.2718 54.0175 68.5484 27.0031 51.1887 0.452995L49.5147 1.54749C66.1551 26.9974 55.4954 52.9848 39.7984 69.5641C31.9518 77.8517 22.944 83.6693 15.6684 85.8243C12.0217 86.9044 8.93093 87.0293 6.65965 86.2196C4.46707 85.4379 2.91174 83.7429 2.33279 80.8068L0.370568 81.1937Z" fill="#7D298A"/>
</svg>
