<svg width="13" height="22" viewBox="0 0 13 22" fill="none" xmlns="http://www.w3.org/2000/svg">
<path fill-rule="evenodd" clip-rule="evenodd" d="M4.68414 1.68414C5.76247 0.605802 7.22501 0 8.75 0H11.75C12.1642 0 12.5 0.335786 12.5 0.75V4.75C12.5 5.16421 12.1642 5.5 11.75 5.5H8.75C8.6837 5.5 8.62011 5.52634 8.57322 5.57322C8.52634 5.62011 8.5 5.6837 8.5 5.75V8H11.75C11.981 8 12.199 8.10641 12.3412 8.28844C12.4833 8.47048 12.5336 8.70785 12.4776 8.9319L11.4776 12.9319C11.3941 13.2658 11.0942 13.5 10.75 13.5H8.5V20.75C8.5 21.1642 8.16421 21.5 7.75 21.5H3.75C3.33579 21.5 3 21.1642 3 20.75V13.5H0.75C0.335786 13.5 0 13.1642 0 12.75V8.75C0 8.33579 0.335786 8 0.75 8H3V5.75C3 4.22501 3.6058 2.76247 4.68414 1.68414ZM8.75 1.5C7.62283 1.5 6.54183 1.94777 5.7448 2.7448C4.94777 3.54183 4.5 4.62283 4.5 5.75V8.75C4.5 9.16421 4.16421 9.5 3.75 9.5H1.5V12H3.75C4.16421 12 4.5 12.3358 4.5 12.75V20H7V12.75C7 12.3358 7.33579 12 7.75 12H10.1644L10.7894 9.5H7.75C7.33579 9.5 7 9.16421 7 8.75V5.75C7 5.28587 7.18437 4.84075 7.51256 4.51256C7.84075 4.18438 8.28587 4 8.75 4H11V1.5H8.75Z" fill="#73B6D2"/>
</svg>
