<svg width="76" height="76" viewBox="0 0 76 76" fill="none" xmlns="http://www.w3.org/2000/svg">
<g filter="url(#filter0_d_3344_920)">
<path d="M36.8028 28.3809C37.1555 28.132 37.5768 27.9989 38.0085 28C38.4402 28.0011 38.8609 28.1363 39.2123 28.3869C39.5685 28.6469 39.8386 29.0069 39.9867 29.4228L40.8813 32.1687C41.1108 32.857 41.4973 33.4825 42.0103 33.9958C42.5233 34.5092 43.1486 34.8963 43.837 35.1266L46.6207 36.0266C47.0322 36.1755 47.3867 36.4497 47.634 36.8106C47.8814 37.1715 48.0092 37.6008 47.9995 38.0381C47.9898 38.4754 47.843 38.8987 47.5798 39.2482C47.3167 39.5978 46.9504 39.856 46.5326 39.9864L43.781 40.8824C43.0919 41.1116 42.4656 41.4977 41.9516 42.0104C41.4376 42.523 41.0499 43.1481 40.8192 43.8363L39.9147 46.6122C39.769 47.0212 39.4995 47.3746 39.1435 47.6233C38.7875 47.872 38.3628 48.0037 37.9284 47.9999C37.4941 47.9962 37.0717 47.8572 36.72 47.6024C36.3684 47.3476 36.1049 46.9896 35.9663 46.5782L35.0518 43.7783C34.8222 43.1086 34.4436 42.4997 33.9444 41.9974C33.4453 41.4951 32.8386 41.1125 32.1701 40.8784L29.3884 39.9844C28.9794 39.8386 28.6259 39.5691 28.3771 39.2133C28.1283 38.8575 27.9965 38.4332 28.0001 37.9991C28.0036 37.5651 28.1422 37.143 28.3968 36.7913C28.6513 36.4396 29.0091 36.1758 29.4205 36.0366L32.1701 35.1466C32.8626 34.917 33.4916 34.528 34.0063 34.0112C34.5211 33.4943 34.9073 32.8639 35.1338 32.1707L36.0384 29.3888C36.1825 28.9809 36.4506 28.6289 36.8028 28.3809Z" fill="#9547A5"/>
</g>
<defs>
<filter id="filter0_d_3344_920" x="0" y="0" width="76" height="76" filterUnits="userSpaceOnUse" color-interpolation-filters="sRGB">
<feFlood flood-opacity="0" result="BackgroundImageFix"/>
<feColorMatrix in="SourceAlpha" type="matrix" values="0 0 0 0 0 0 0 0 0 0 0 0 0 0 0 0 0 0 127 0" result="hardAlpha"/>
<feOffset/>
<feGaussianBlur stdDeviation="14"/>
<feComposite in2="hardAlpha" operator="out"/>
<feColorMatrix type="matrix" values="0 0 0 0 0.560784 0 0 0 0 0.231373 0 0 0 0 0.619608 0 0 0 0.5 0"/>
<feBlend mode="normal" in2="BackgroundImageFix" result="effect1_dropShadow_3344_920"/>
<feBlend mode="normal" in="SourceGraphic" in2="effect1_dropShadow_3344_920" result="shape"/>
</filter>
</defs>
</svg>
