<svg width="20" height="20" viewBox="0 0 20 20" fill="none" xmlns="http://www.w3.org/2000/svg">
<path d="M10 0C15.523 0 20 4.477 20 10C20 15.523 15.523 20 10 20C8.29797 20.0024 6.62371 19.5686 5.137 18.74L4.832 18.562L1.8 19.454C1.635 19.5026 1.46032 19.5083 1.29252 19.4705C1.12471 19.4327 0.969341 19.3526 0.841137 19.238C0.712934 19.1233 0.616143 18.9778 0.559943 18.8152C0.503742 18.6526 0.489994 18.4784 0.52 18.309L0.546 18.2L1.438 15.168C0.495054 13.6093 -0.00232053 11.8218 0 10C0 4.477 4.477 0 10 0ZM10 2C8.56763 1.99974 7.16146 2.38406 5.92833 3.11281C4.6952 3.84157 3.68036 4.88804 2.98976 6.14294C2.29917 7.39784 1.95816 8.81514 2.00236 10.2468C2.04655 11.6785 2.47432 13.0721 3.241 14.282C3.439 14.594 3.524 14.978 3.457 15.359L3.418 15.522L2.977 17.023L4.478 16.582C4.911 16.454 5.361 16.532 5.718 16.759C6.76633 17.4228 7.95469 17.8336 9.18914 17.959C10.4236 18.0844 11.6703 17.921 12.8307 17.4816C13.9911 17.0422 15.0334 16.3389 15.8752 15.4273C16.717 14.5157 17.3351 13.4208 17.6809 12.2291C18.0266 11.0374 18.0904 9.78168 17.8672 8.56111C17.6441 7.34053 17.14 6.1886 16.395 5.19638C15.6499 4.20415 14.6843 3.39883 13.5744 2.84408C12.4645 2.28933 11.2408 2.00036 10 2ZM7.102 5.184C7.21282 5.13654 7.33402 5.11851 7.45385 5.13165C7.57369 5.14479 7.6881 5.18866 7.786 5.259C8.29 5.627 8.69 6.121 9.034 6.603L9.361 7.077L9.514 7.302C9.6026 7.43096 9.64613 7.58557 9.63781 7.74182C9.62949 7.89806 9.5698 8.04718 9.468 8.166L9.393 8.242L8.469 8.928C8.42503 8.9606 8.39413 9.00781 8.38185 9.06115C8.36957 9.11449 8.37672 9.17046 8.402 9.219C8.612 9.599 8.983 10.166 9.409 10.592C9.836 11.018 10.429 11.414 10.835 11.647C10.923 11.697 11.029 11.681 11.101 11.616L11.139 11.571L11.74 10.656C11.8502 10.5088 12.0131 10.4101 12.1946 10.3806C12.3761 10.3512 12.5619 10.3932 12.713 10.498L13.256 10.877C13.796 11.262 14.315 11.676 14.726 12.201C14.802 12.2997 14.8504 12.4168 14.866 12.5404C14.8817 12.664 14.8641 12.7895 14.815 12.904C14.419 13.828 13.416 14.615 12.374 14.577L12.215 14.567L12.024 14.549L11.916 14.535L11.678 14.495C10.754 14.321 9.273 13.797 7.738 12.263C6.204 10.728 5.68 9.247 5.506 8.323L5.466 8.085L5.441 7.877L5.428 7.702L5.424 7.627C5.386 6.583 6.177 5.58 7.102 5.184Z" fill="#358BB9"/>
</svg>
